<svg width="30" height="30" viewBox="0 0 30 30" fill="none" xmlns="http://www.w3.org/2000/svg">
<g clip-path="url(#clip0_9_23)">
<path d="M27.1875 0.703125H2.8125C2.25945 0.697496 1.72675 0.911494 1.33129 1.29816C0.935838 1.68483 0.709925 2.21259 0.703125 2.76562V27.2391C0.711154 27.7913 0.937608 28.3178 1.33293 28.7035C1.72825 29.0892 2.26025 29.3025 2.8125 29.2969H27.1875C27.7406 29.3013 28.2729 29.0865 28.6682 28.6996C29.0634 28.3127 29.2895 27.7851 29.2969 27.232V2.75859C29.287 2.20718 29.0599 1.68194 28.6649 1.29704C28.2699 0.912151 27.739 0.698713 27.1875 0.703125Z" fill="#0076B2"/>
<path d="M4.93595 11.4211H9.18048V25.0781H4.93595V11.4211ZM7.05939 4.62422C7.54622 4.62422 8.0221 4.76861 8.42685 5.03912C8.8316 5.30964 9.14703 5.69412 9.33322 6.14394C9.51941 6.59375 9.56801 7.08868 9.47287 7.56612C9.37772 8.04356 9.14311 8.48206 8.7987 8.82613C8.4543 9.17021 8.01558 9.4044 7.53805 9.49909C7.06053 9.59378 6.56564 9.54471 6.116 9.35809C5.66637 9.17147 5.28218 8.85568 5.01205 8.45067C4.74192 8.04567 4.59799 7.56964 4.59845 7.08281C4.59907 6.43054 4.85862 5.80519 5.32007 5.34418C5.78152 4.88317 6.40711 4.62422 7.05939 4.62422ZM11.843 11.4211H15.9117V13.2961H15.968C16.5352 12.2227 17.918 11.0906 19.9828 11.0906C24.2813 11.0812 25.0781 13.9102 25.0781 17.5781V25.0781H20.8336V18.4336C20.8336 16.8516 20.8055 14.8148 18.6281 14.8148C16.4508 14.8148 16.0805 16.5398 16.0805 18.3305V25.0781H11.843V11.4211Z" fill="white"/>
</g>
<defs>
<clipPath id="clip0_9_23">
<rect width="30" height="30" fill="white"/>
</clipPath>
</defs>
</svg>
